<svg xmlns="http://www.w3.org/2000/svg" width="680" height="398" id="crm-scene" viewBox="0 0 680 398" role="img" fill="rgb(0, 0, 0)" stroke="none" stroke-width="1px" stroke-linecap="butt" stroke-linejoin="miter" stroke-dasharray="none" fill-opacity="1" stroke-opacity="1" font-size="14px" font-weight="400" text-anchor="start">
          <g id="crm-world"><defs><pattern id="crm-corcho" width="9" height="9" patternUnits="userSpaceOnUse"><circle class="corcho-pto" cx="2" cy="2" r="1.1"></circle><circle class="corcho-pto" cx="6.5" cy="6.5" r="1.1"></circle></pattern></defs><rect x="16" y="26" width="648" height="168" rx="4" fill="rgb(138, 106, 69)"></rect><rect x="24" y="34" width="632" height="152" rx="2" fill="rgb(226, 207, 174)"></rect><rect fill="url(&quot;#corcho&quot;)" x="24" y="34" width="632" height="152" rx="2"></rect><rect x="30" y="17" width="40.2" height="18" rx="2" fill="rgb(107, 111, 121)"></rect><text x="39" y="30" fill="rgb(255, 255, 255)" font-size="11px" font-weight="500" letter-spacing="0.88px" font-family="Azeret Mono, ui-monospace, SFMono-Regular, Menlo, monospace">HOY</text><rect x="46" y="154" width="602" height="22" rx="1" fill="rgb(255, 255, 255)" stroke="rgb(207, 201, 192)" stroke-width="0.8px"></rect><line x1="62" y1="154" x2="62" y2="163" stroke="rgb(207, 201, 192)"></line><line x1="86.78260869565217" y1="154" x2="86.78260869565217" y2="159" stroke="rgb(207, 201, 192)"></line><line x1="111.56521739130434" y1="154" x2="111.56521739130434" y2="159" stroke="rgb(207, 201, 192)"></line><line x1="136.3478260869565" y1="154" x2="136.3478260869565" y2="159" stroke="rgb(207, 201, 192)"></line><line x1="161.1304347826087" y1="154" x2="161.1304347826087" y2="159" stroke="rgb(207, 201, 192)"></line><line x1="185.91304347826087" y1="154" x2="185.91304347826087" y2="159" stroke="rgb(207, 201, 192)"></line><line x1="210.69565217391303" y1="154" x2="210.69565217391303" y2="159" stroke="rgb(207, 201, 192)"></line><line x1="235.47826086956522" y1="154" x2="235.47826086956522" y2="163" stroke="rgb(207, 201, 192)"></line><line x1="260.2608695652174" y1="154" x2="260.2608695652174" y2="159" stroke="rgb(207, 201, 192)"></line><line x1="285.04347826086956" y1="154" x2="285.04347826086956" y2="159" stroke="rgb(207, 201, 192)"></line><line x1="309.82608695652175" y1="154" x2="309.82608695652175" y2="159" stroke="rgb(207, 201, 192)"></line><line x1="334.60869565217394" y1="154" x2="334.60869565217394" y2="159" stroke="rgb(207, 201, 192)"></line><line x1="359.39130434782606" y1="154" x2="359.39130434782606" y2="159" stroke="rgb(207, 201, 192)"></line><line x1="384.17391304347825" y1="154" x2="384.17391304347825" y2="159" stroke="rgb(207, 201, 192)"></line><line x1="408.95652173913044" y1="154" x2="408.95652173913044" y2="163" stroke="rgb(207, 201, 192)"></line><line x1="433.7391304347826" y1="154" x2="433.7391304347826" y2="159" stroke="rgb(207, 201, 192)"></line><line x1="458.5217391304348" y1="154" x2="458.5217391304348" y2="159" stroke="rgb(207, 201, 192)"></line><line x1="483.30434782608694" y1="154" x2="483.30434782608694" y2="159" stroke="rgb(207, 201, 192)"></line><line x1="508.0869565217391" y1="154" x2="508.0869565217391" y2="159" stroke="rgb(207, 201, 192)"></line><line x1="532.8695652173913" y1="154" x2="532.8695652173913" y2="159" stroke="rgb(207, 201, 192)"></line><line x1="557.6521739130435" y1="154" x2="557.6521739130435" y2="159" stroke="rgb(207, 201, 192)"></line><line x1="582.4347826086956" y1="154" x2="582.4347826086956" y2="163" stroke="rgb(207, 201, 192)"></line><line x1="607.2173913043479" y1="154" x2="607.2173913043479" y2="159" stroke="rgb(207, 201, 192)"></line><line x1="632" y1="154" x2="632" y2="159" stroke="rgb(207, 201, 192)"></line><text x="58" y="172" fill="rgb(122, 125, 134)" font-size="9px" letter-spacing="0.27px" font-family="Azeret Mono, ui-monospace, SFMono-Regular, Menlo, monospace">día 1</text><text x="206.69565217391303" y="172" fill="rgb(122, 125, 134)" font-size="9px" letter-spacing="0.27px" font-family="Azeret Mono, ui-monospace, SFMono-Regular, Menlo, monospace">día 7</text><text x="380.17391304347825" y="172" fill="rgb(122, 125, 134)" font-size="9px" letter-spacing="0.27px" font-family="Azeret Mono, ui-monospace, SFMono-Regular, Menlo, monospace">día 14</text><text x="553.6521739130435" y="172" fill="rgb(122, 125, 134)" font-size="9px" letter-spacing="0.27px" font-family="Azeret Mono, ui-monospace, SFMono-Regular, Menlo, monospace">día 21</text><circle cx="52" cy="165" r="4.2" fill="rgb(178, 58, 58)"></circle><circle cx="50.7" cy="163.7" r="1.3" fill="rgb(255, 255, 255)" opacity="0.55"></circle><circle cx="642" cy="165" r="4.2" fill="rgb(178, 58, 58)"></circle><circle cx="640.7" cy="163.7" r="1.3" fill="rgb(255, 255, 255)" opacity="0.55"></circle><rect x="16" y="214" width="648" height="168" rx="4" fill="rgb(138, 106, 69)"></rect><rect x="24" y="222" width="632" height="152" rx="2" fill="rgb(226, 207, 174)"></rect><rect fill="url(&quot;#corcho&quot;)" x="24" y="222" width="632" height="152" rx="2"></rect><rect x="30" y="205" width="121.60000000000001" height="18" rx="2" fill="rgb(163, 92, 35)"></rect><text x="39" y="218" fill="rgb(255, 255, 255)" font-size="11px" font-weight="500" letter-spacing="0.88px" font-family="Azeret Mono, ui-monospace, SFMono-Regular, Menlo, monospace">CON EL SISTEMA</text><rect x="46" y="342" width="602" height="22" rx="1" fill="rgb(255, 255, 255)" stroke="rgb(207, 201, 192)" stroke-width="0.8px"></rect><line x1="62" y1="342" x2="62" y2="351" stroke="rgb(207, 201, 192)"></line><line x1="86.78260869565217" y1="342" x2="86.78260869565217" y2="347" stroke="rgb(207, 201, 192)"></line><line x1="111.56521739130434" y1="342" x2="111.56521739130434" y2="347" stroke="rgb(207, 201, 192)"></line><line x1="136.3478260869565" y1="342" x2="136.3478260869565" y2="347" stroke="rgb(207, 201, 192)"></line><line x1="161.1304347826087" y1="342" x2="161.1304347826087" y2="347" stroke="rgb(207, 201, 192)"></line><line x1="185.91304347826087" y1="342" x2="185.91304347826087" y2="347" stroke="rgb(207, 201, 192)"></line><line x1="210.69565217391303" y1="342" x2="210.69565217391303" y2="347" stroke="rgb(207, 201, 192)"></line><line x1="235.47826086956522" y1="342" x2="235.47826086956522" y2="351" stroke="rgb(207, 201, 192)"></line><line x1="260.2608695652174" y1="342" x2="260.2608695652174" y2="347" stroke="rgb(207, 201, 192)"></line><line x1="285.04347826086956" y1="342" x2="285.04347826086956" y2="347" stroke="rgb(207, 201, 192)"></line><line x1="309.82608695652175" y1="342" x2="309.82608695652175" y2="347" stroke="rgb(207, 201, 192)"></line><line x1="334.60869565217394" y1="342" x2="334.60869565217394" y2="347" stroke="rgb(207, 201, 192)"></line><line x1="359.39130434782606" y1="342" x2="359.39130434782606" y2="347" stroke="rgb(207, 201, 192)"></line><line x1="384.17391304347825" y1="342" x2="384.17391304347825" y2="347" stroke="rgb(207, 201, 192)"></line><line x1="408.95652173913044" y1="342" x2="408.95652173913044" y2="351" stroke="rgb(207, 201, 192)"></line><line x1="433.7391304347826" y1="342" x2="433.7391304347826" y2="347" stroke="rgb(207, 201, 192)"></line><line x1="458.5217391304348" y1="342" x2="458.5217391304348" y2="347" stroke="rgb(207, 201, 192)"></line><line x1="483.30434782608694" y1="342" x2="483.30434782608694" y2="347" stroke="rgb(207, 201, 192)"></line><line x1="508.0869565217391" y1="342" x2="508.0869565217391" y2="347" stroke="rgb(207, 201, 192)"></line><line x1="532.8695652173913" y1="342" x2="532.8695652173913" y2="347" stroke="rgb(207, 201, 192)"></line><line x1="557.6521739130435" y1="342" x2="557.6521739130435" y2="347" stroke="rgb(207, 201, 192)"></line><line x1="582.4347826086956" y1="342" x2="582.4347826086956" y2="351" stroke="rgb(207, 201, 192)"></line><line x1="607.2173913043479" y1="342" x2="607.2173913043479" y2="347" stroke="rgb(207, 201, 192)"></line><line x1="632" y1="342" x2="632" y2="347" stroke="rgb(207, 201, 192)"></line><text x="58" y="360" fill="rgb(122, 125, 134)" font-size="9px" letter-spacing="0.27px" font-family="Azeret Mono, ui-monospace, SFMono-Regular, Menlo, monospace">día 1</text><text x="206.69565217391303" y="360" fill="rgb(122, 125, 134)" font-size="9px" letter-spacing="0.27px" font-family="Azeret Mono, ui-monospace, SFMono-Regular, Menlo, monospace">día 7</text><text x="380.17391304347825" y="360" fill="rgb(122, 125, 134)" font-size="9px" letter-spacing="0.27px" font-family="Azeret Mono, ui-monospace, SFMono-Regular, Menlo, monospace">día 14</text><text x="553.6521739130435" y="360" fill="rgb(122, 125, 134)" font-size="9px" letter-spacing="0.27px" font-family="Azeret Mono, ui-monospace, SFMono-Regular, Menlo, monospace">día 21</text><circle cx="52" cy="353" r="4.2" fill="rgb(178, 58, 58)"></circle><circle cx="50.7" cy="351.7" r="1.3" fill="rgb(255, 255, 255)" opacity="0.55"></circle><circle cx="642" cy="353" r="4.2" fill="rgb(178, 58, 58)"></circle><circle cx="640.7" cy="351.7" r="1.3" fill="rgb(255, 255, 255)" opacity="0.55"></circle><g data-d="0"><g transform="rotate(-2.5 86 44)"><rect x="42" y="44" width="88" height="52" rx="1" fill="rgb(255, 255, 255)" stroke="rgb(163, 92, 35)" stroke-width="0.8px"></rect><text x="49" y="58" fill="rgb(122, 125, 134)" font-size="8.5px" letter-spacing="0.34px" font-family="Azeret Mono, ui-monospace, SFMono-Regular, Menlo, monospace">PROS-0412</text><text x="49" y="72" fill="rgb(25, 26, 30)" font-size="9.5px">Ferretería · Toluca</text><text x="49" y="87" fill="rgb(78, 80, 88)" font-size="9.5px" font-weight="700" font-family="Azeret Mono, ui-monospace, SFMono-Regular, Menlo, monospace">$184,500</text></g><circle cx="86" cy="44" r="4.2" fill="rgb(178, 58, 58)"></circle><circle cx="84.7" cy="42.7" r="1.3" fill="rgb(255, 255, 255)" opacity="0.55"></circle></g><g data-d="0"><g transform="rotate(0 86 232)"><rect x="42" y="232" width="88" height="52" rx="1" fill="rgb(255, 255, 255)" stroke="rgb(163, 92, 35)" stroke-width="0.8px"></rect><text x="49" y="246" fill="rgb(122, 125, 134)" font-size="8.5px" letter-spacing="0.34px" font-family="Azeret Mono, ui-monospace, SFMono-Regular, Menlo, monospace">PROS-0412</text><text x="49" y="260" fill="rgb(25, 26, 30)" font-size="9.5px">Ferretería · Toluca</text><text x="49" y="275" fill="rgb(78, 80, 88)" font-size="9.5px" font-weight="700" font-family="Azeret Mono, ui-monospace, SFMono-Regular, Menlo, monospace">$184,500</text></g><circle cx="86" cy="232" r="4.2" fill="rgb(178, 58, 58)"></circle><circle cx="84.7" cy="230.7" r="1.3" fill="rgb(255, 255, 255)" opacity="0.55"></circle></g><g data-d="0" data-h="1"><path d="M86 284 Q98.78260869565217 329 111.56521739130434 342" fill="none" stroke="rgb(163, 92, 35)" stroke-width="1.6px" stroke-linecap="round"></path></g></g>
        </svg>