<svg xmlns="http://www.w3.org/2000/svg" width="680" height="344" id="software-a-medida-scene" viewBox="0 0 680 344" role="img" fill="rgb(0, 0, 0)" stroke="none" stroke-width="1px" stroke-linecap="butt" stroke-linejoin="miter" stroke-dasharray="none" fill-opacity="1" stroke-opacity="1" font-size="14px" font-weight="400" text-anchor="start">
          <g id="software-a-medida-world"><rect x="16" y="13" width="40.2" height="18" rx="2" fill="rgb(107, 111, 121)"></rect><text x="25" y="26" fill="rgb(255, 255, 255)" font-size="11px" font-weight="500" letter-spacing="0.88px" font-family="Azeret Mono, ui-monospace, SFMono-Regular, Menlo, monospace">HOY</text><rect x="318" y="13" width="121.60000000000001" height="18" rx="2" fill="rgb(163, 92, 35)"></rect><text x="327" y="26" fill="rgb(255, 255, 255)" font-size="11px" font-weight="500" letter-spacing="0.88px" font-family="Azeret Mono, ui-monospace, SFMono-Regular, Menlo, monospace">CON EL SISTEMA</text><path d="M132 98 Q129 144 141 172 L137 214 L199 214 L195 172 Q207 144 204 98 Q168 86 132 98 Z" fill="rgb(220, 210, 194)" stroke="rgb(184, 172, 152)"></path><rect x="161" y="75" width="14" height="14" rx="4" fill="rgb(184, 172, 152)"></rect><path d="M168 214 V270" fill="none" stroke="rgb(138, 106, 69)" stroke-width="4px" stroke-linecap="round"></path><path d="M134 286 Q168 262 202 286" fill="none" stroke="rgb(138, 106, 69)" stroke-width="3px" stroke-linecap="round"></path><path d="M168 270 V284" fill="none" stroke="rgb(138, 106, 69)" stroke-width="3px" stroke-linecap="round"></path><text x="168" y="304" fill="rgb(122, 125, 134)" font-size="8.5px" font-weight="700" letter-spacing="1.02px" text-anchor="middle" font-family="Azeret Mono, ui-monospace, SFMono-Regular, Menlo, monospace">SISTEMA DE CATÁLOGO</text><path d="M402 98 Q399 144 411 172 L407 214 L469 214 L465 172 Q477 144 474 98 Q438 86 402 98 Z" fill="rgb(220, 210, 194)" stroke="rgb(184, 172, 152)"></path><rect x="431" y="75" width="14" height="14" rx="4" fill="rgb(184, 172, 152)"></rect><path d="M438 214 V270" fill="none" stroke="rgb(138, 106, 69)" stroke-width="4px" stroke-linecap="round"></path><path d="M404 286 Q438 262 472 286" fill="none" stroke="rgb(138, 106, 69)" stroke-width="3px" stroke-linecap="round"></path><path d="M438 270 V284" fill="none" stroke="rgb(138, 106, 69)" stroke-width="3px" stroke-linecap="round"></path><text x="438" y="304" fill="rgb(122, 125, 134)" font-size="8.5px" font-weight="700" letter-spacing="1.02px" text-anchor="middle" font-family="Azeret Mono, ui-monospace, SFMono-Regular, Menlo, monospace">TU SISTEMA</text><path d="M112 94 L98 244 L122 248 L130 184 L130 252 L206 252 L206 184 L214 248 L238 244 L224 94 L182 88 L168 138 L154 88 Z" fill="rgb(201, 203, 209)" stroke="rgb(142, 146, 156)" stroke-width="1.2px" stroke-linejoin="round"></path><path d="M112 94 L130 184" fill="none" stroke="rgb(142, 146, 156)" stroke-dasharray="2px, 2px"></path><path d="M224 94 L206 184" fill="none" stroke="rgb(142, 146, 156)" stroke-dasharray="2px, 2px"></path><path d="M168 138 V250" fill="none" stroke="rgb(142, 146, 156)" stroke-dasharray="2px, 2px"></path><path d="M158 150 l4 -3 l4 3 l4 -3 l4 3 l4 -3" fill="none" stroke="rgb(107, 111, 121)" stroke-width="1.4px" stroke-linecap="round"></path><path d="M158 162 l4 -3 l4 3 l4 -3 l4 3 l4 -3" fill="none" stroke="rgb(107, 111, 121)" stroke-width="1.4px" stroke-linecap="round"></path><path d="M158 174 l4 -3 l4 3 l4 -3 l4 3 l4 -3" fill="none" stroke="rgb(107, 111, 121)" stroke-width="1.4px" stroke-linecap="round"></path><g data-d="0"><path d="M110 248 L92 262" fill="none" stroke="rgb(107, 111, 121)" stroke-width="0.9px"></path><text x="28" y="274" fill="rgb(107, 111, 121)" font-size="8.5px" font-weight="700" letter-spacing="0.255px" font-family="Azeret Mono, ui-monospace, SFMono-Regular, Menlo, monospace">mangas que sobran</text><text x="28" y="285" fill="rgb(107, 111, 121)" font-size="8px" letter-spacing="0.24px" font-family="Azeret Mono, ui-monospace, SFMono-Regular, Menlo, monospace">40 funciones que tu empresa jamás usa</text></g><g data-d="0" data-h="3"><path d="M180 162 L242 152" fill="none" stroke="rgb(107, 111, 121)" stroke-width="0.9px"></path><text x="246" y="148" fill="rgb(107, 111, 121)" font-size="8.5px" font-weight="700" letter-spacing="0.255px" font-family="Azeret Mono, ui-monospace, SFMono-Regular, Menlo, monospace">aprieta aquí</text><text x="246" y="159" fill="rgb(107, 111, 121)" font-size="8px" letter-spacing="0.24px" font-family="Azeret Mono, ui-monospace, SFMono-Regular, Menlo, monospace">tu cotización: 3 campos</text><text x="246" y="169" fill="rgb(107, 111, 121)" font-size="8px" letter-spacing="0.24px" font-family="Azeret Mono, ui-monospace, SFMono-Regular, Menlo, monospace">de 14 · el resto en Excel</text></g><g data-d="0" data-h="1"><path d="M398 136 Q438 152 478 136" fill="none" stroke="rgb(163, 92, 35)" stroke-width="7px" stroke-linecap="round"></path><line x1="408" y1="136.5" x2="408" y2="140.5" stroke="rgb(255, 255, 255)"></line><line x1="418" y1="139" x2="418" y2="145" stroke="rgb(255, 255, 255)"></line><line x1="428" y1="140.5" x2="428" y2="144.5" stroke="rgb(255, 255, 255)"></line><line x1="438" y1="141" x2="438" y2="147" stroke="rgb(255, 255, 255)"></line><line x1="448" y1="140.5" x2="448" y2="144.5" stroke="rgb(255, 255, 255)"></line><line x1="458" y1="139" x2="458" y2="145" stroke="rgb(255, 255, 255)"></line><line x1="468" y1="136.5" x2="468" y2="140.5" stroke="rgb(255, 255, 255)"></line><path d="M482 136 L508 122" fill="none" stroke="rgb(163, 92, 35)" stroke-width="0.9px"></path><text x="512" y="118" fill="rgb(163, 92, 35)" font-size="8.5px" font-weight="700" letter-spacing="0.255px" font-family="Azeret Mono, ui-monospace, SFMono-Regular, Menlo, monospace">14 datos</text><text x="512" y="129" fill="rgb(122, 125, 134)" font-size="8px" letter-spacing="0.24px" font-family="Azeret Mono, ui-monospace, SFMono-Regular, Menlo, monospace">3 excepciones · quién decide</text></g></g>
        </svg>